<!-- Generator: Adobe Illustrator 19.2.0, SVG Export Plug-In  -->
<svg version="1.1"
	 xmlns="http://www.w3.org/2000/svg" xmlns:xlink="http://www.w3.org/1999/xlink" xmlns:a="http://ns.adobe.com/AdobeSVGViewerExtensions/3.0/"
	 x="0px" y="0px" width="141.856px" height="146.299px" viewBox="0 0 141.856 146.299"
	 style="enable-background:new 0 0 141.856 146.299;" xml:space="preserve">
<style type="text/css">
	.st0{clip-path:url(#SVGID_2_);fill:#AABB39;}
	.st1{clip-path:url(#SVGID_2_);}
	.st2{fill:#DEC8AE;}
	.st3{fill:#642C06;}
	.st4{fill:#BEC0C1;}
	.st5{fill:#5B843B;}
	.st6{fill:#4A7336;}
	.st7{fill:#F2F2F2;}
	.st8{fill:#F3DBBD;}
	.st9{fill:#30251C;}
	.st10{fill:#FFFFFF;}
	.st11{clip-path:url(#SVGID_4_);fill:#AABB39;}
	.st12{clip-path:url(#SVGID_4_);}
</style>
<defs>
</defs>
<g>
	<g>
		<defs>
			<circle id="SVGID_1_" cx="70.928" cy="70.927" r="70.927"/>
		</defs>
		<use xlink:href="#SVGID_1_"  style="overflow:visible;fill:#AABB39;"/>
		<clipPath id="SVGID_2_">
			<use xlink:href="#SVGID_1_"  style="overflow:visible;"/>
		</clipPath>
		<circle class="st0" cx="70.928" cy="70.927" r="70.927"/>
		<g class="st1">
			<g>
				<g>
					<g>
						<g>
							<g>
								<g>
									<path class="st2" d="M81.646,102.195H57.373c1.674,5.33,2.312,16.718-1.851,20.148c0,0,2.913,9.584,13.988,12.449
										c11.074-2.865,13.986-12.449,13.986-12.449C79.336,118.914,79.972,107.525,81.646,102.195z"/>
								</g>
							</g>
						</g>
						<path class="st3" d="M118.889,146.299c-3.502-22.599-35.654-23.956-35.654-23.956c-2.2,7.909-12.258,8.689-13.437,8.757
							c-1.159-0.065-12.008-0.837-14.211-8.757c0,0-29.444,2.876-32.622,23.956H118.889z"/>
					</g>
				</g>
				<path class="st4" d="M118.891,146.299c-3.464-22.636-35.087-24.524-35.087-24.524c-2.199,7.909-12.826,9.258-14.005,9.325
					c-1.159-0.065-12.008-1.405-14.211-9.325c0,0-29.447,3.406-32.623,24.524H118.891z"/>
				<path class="st5" d="M118.891,146.299c-3.464-22.636-35.087-24.524-35.087-24.524c0.165,7.73-5.716,20.729-10.625,24.524
					H118.891z"/>
				<path class="st5" d="M67.9,146.299c-5.51-3.73-13.256-16.338-12.312-24.524c0,0-29.447,3.406-32.623,24.524H67.9z"/>
				<path class="st6" d="M84.121,146.299c4.53-6.008,15.364-21.587,7.267-23.366c-4.428-0.971-7.585-1.158-7.585-1.158
					c0.165,7.73-5.716,20.729-10.625,24.524H84.121z"/>
				<path class="st6" d="M67.9,146.299c-5.51-3.73-13.256-16.338-12.312-24.524c0,0-3.109,0.359-7.416,1.569
					c-7.552,2.12,3.96,17.09,8.832,22.955H67.9z"/>
				<path class="st7" d="M58.297,116.38c0,0,0.261,4.026-2.559,5.775l14.061,9.231l-16.747,3.777l-4.88-11.819L58.297,116.38z"/>
				<path class="st7" d="M80.72,116.362c0,0-0.252,4.048,2.568,5.797l-14.054,9.227l16.748,3.777l4.9-12.339L80.72,116.362z"/>
			</g>
			<g>
				<g>
					<g>
						<path class="st8" d="M102.89,79.443c0.474-4.572-1.705-8.633-4.867-9.066c-3.164-0.434-6.11,2.922-6.585,7.499
							c-0.475,4.572,1.706,8.633,4.869,9.065C99.468,87.375,102.416,84.017,102.89,79.443z"/>
						<g>
							<g>
								<g>
									<path class="st8" d="M69.8,37.877c-10.748,0-27.747,6.109-27.747,34.74c0,4.706,0.436,8.949,1.115,12.682
										c1.707,9.38,8.402,26.305,26.632,26.305s24.913-16.909,26.621-26.268c0.683-3.742,1.122-7.998,1.123-12.719
										C97.543,43.987,80.546,37.877,69.8,37.877z"/>
								</g>
								<g>
									<path class="st8" d="M36.707,79.443c-0.473-4.572,1.707-8.633,4.868-9.066c3.163-0.434,6.11,2.922,6.584,7.499
										c0.476,4.572-1.705,8.633-4.868,9.065C40.129,87.375,37.182,84.017,36.707,79.443z"/>
								</g>
							</g>
						</g>
					</g>
					<path class="st9" d="M99.097,70.677c0,0,8.147-41.09-29.489-41.09c-37.833,0-28.491,40.881-28.491,40.881
						s5.162-1.935,5.324,9.716c2.047,0,0.949,0,0.949,0s1.834-8.874,2.39-16.829c13.305,0,25.072-1.703,34.965-9.892
						c5.618,0,6.383,6.996,6.383,12.351c0,0-0.079,5.614,0.091,14.37c1.707,0,1.707,0,1.707,0S94.654,68.117,99.097,70.677z"/>
				</g>
				<g>
					<g>
						<path class="st9" d="M60.546,73.469c-2.202,0-3.987,1.787-3.987,3.986c0,2.204,1.786,3.988,3.987,3.988
							c2.201,0,3.986-1.785,3.986-3.988C64.532,75.256,62.748,73.469,60.546,73.469z M58.627,77.612
							c-0.592,0-1.072-0.482-1.072-1.076c0-0.592,0.48-1.073,1.072-1.073c0.594,0,1.074,0.481,1.074,1.073
							C59.702,77.13,59.222,77.612,58.627,77.612z"/>
						<circle class="st10" cx="58.628" cy="76.536" r="1.074"/>
					</g>
					<g>
						<path class="st9" d="M79.864,73.469c-2.201,0-3.987,1.787-3.987,3.986c0,2.204,1.786,3.988,3.987,3.988
							c2.202,0,3.986-1.785,3.986-3.988C83.851,75.256,82.066,73.469,79.864,73.469z M77.946,77.612
							c-0.592,0-1.073-0.482-1.073-1.076c0-0.592,0.48-1.073,1.073-1.073c0.593,0,1.074,0.481,1.074,1.073
							C79.02,77.13,78.539,77.612,77.946,77.612z"/>
						<circle class="st10" cx="77.947" cy="76.536" r="1.074"/>
					</g>
				</g>
				<path class="st2" d="M70.205,89.034c-0.798,0-1.445-0.426-1.445-0.952v-2.208c0-0.525,0.646-0.949,1.445-0.949l0,0
					c0.797,0,1.444,0.424,1.444,0.949v2.208C71.649,88.608,71.002,89.034,70.205,89.034L70.205,89.034z"/>
				<path class="st10" d="M70.205,99.774c5.009,0,9.07-1.655,9.07-3.697H61.134C61.134,98.119,65.195,99.774,70.205,99.774z"/>
			</g>
		</g>
	</g>
</g>
</svg>