<!-- Generator: Adobe Illustrator 19.2.0, SVG Export Plug-In  -->
<svg version="1.1"
	 xmlns="http://www.w3.org/2000/svg" xmlns:xlink="http://www.w3.org/1999/xlink" xmlns:a="http://ns.adobe.com/AdobeSVGViewerExtensions/3.0/"
	 x="0px" y="0px" width="174.087px" height="176.405px" viewBox="0 0 174.087 176.405"
	 style="enable-background:new 0 0 174.087 176.405;" xml:space="preserve">
<style type="text/css">
	.st0{fill:#5B843B;}
	.st1{clip-path:url(#SVGID_2_);}
	.st2{fill:#DEC8AE;}
	.st3{fill:#642C06;}
	.st4{fill:#BEC0C1;}
	.st5{fill:#665A48;}
	.st6{fill:#30251C;}
	.st7{fill:#F2F2F2;}
	.st8{fill:#F3DBBD;}
	.st9{fill:#E4E5E6;}
	.st10{fill:#FFFFFF;}
	.st11{clip-path:url(#SVGID_4_);}
</style>
<defs>
</defs>
<circle class="st0" cx="87.044" cy="87.043" r="87.044"/>
<g>
	<defs>
		<circle id="SVGID_1_" cx="87.044" cy="87.043" r="87.044"/>
	</defs>
	<clipPath id="SVGID_2_">
		<use xlink:href="#SVGID_1_"  style="overflow:visible;"/>
	</clipPath>
	<g class="st1">
		<g>
			<g>
				<g>
					<g>
						<g>
							<g>
								<path class="st2" d="M102.989,124.567H74.461c1.968,6.266,2.717,19.651-2.174,23.68c0,0,3.422,11.268,16.439,14.636
									c13.016-3.368,16.438-14.636,16.438-14.636C100.274,144.219,101.022,130.833,102.989,124.567z"/>
							</g>
						</g>
					</g>
					<path class="st3" d="M146.761,176.405c-4.115-26.56-41.904-28.158-41.904-28.158c-2.585,9.298-14.407,10.216-15.793,10.297
						c-1.363-0.079-14.115-0.986-16.703-10.297c0,0-33.256,3.385-36.991,28.158H146.761z"/>
				</g>
			</g>
			<path class="st4" d="M146.764,176.405c-4.073-26.604-41.239-28.825-41.239-28.825c-2.585,9.298-15.074,10.883-16.46,10.964
				c-1.363-0.079-14.115-1.653-16.703-10.964c0,0-30.675,4.007-34.409,28.825H146.764z"/>
			<path class="st5" d="M146.764,176.405c-4.073-26.604-41.239-28.825-41.239-28.825c0.194,9.091-6.718,24.364-12.488,28.825
				H146.764z"/>
			<path class="st5" d="M87.276,176.405c-6.477-4.383-15.58-19.201-14.472-28.825c0,0-34.607,4.007-38.341,28.825H87.276z"/>
			<path class="st6" d="M105.898,176.405c5.326-7.06,18.058-25.373,8.541-27.462c-5.205-1.142-8.914-1.363-8.914-1.363
				c0.194,9.091-6.718,24.364-12.488,28.825H105.898z"/>
			<path class="st6" d="M86.833,176.405c-6.477-4.383-15.579-19.201-14.471-28.825c0,0-3.654,0.423-8.715,1.845
				c-8.877,2.494,4.654,20.087,10.38,26.98H86.833z"/>
			<path class="st7" d="M75.558,141.173c0,0,0.507,4.938-2.808,6.995l16.315,10.71l-19.684,4.44l-5.672-13.681L75.558,141.173z"/>
			<path class="st7" d="M101.883,141.113c0,0-0.274,4.862,3.04,6.919l-16.522,10.846l19.685,4.44l5.673-13.681L101.883,141.113z"/>
		</g>
		<g>
			<g>
				<path class="st8" d="M131.454,92.574c0.612-5.906-2.203-11.148-6.285-11.708c-4.084-0.561-7.89,3.774-8.502,9.682
					c-0.612,5.905,2.203,11.147,6.286,11.706C127.037,102.814,130.844,98.48,131.454,92.574z"/>
				<g>
					<path class="st8" d="M52.901,83.761c0-36.969,21.947-44.858,35.825-44.859l0,0h0h0.001l0,0
						c13.878,0.001,35.825,7.89,35.825,44.859c0,21.344-10.801,50.34-35.825,50.34C63.704,134.101,52.901,105.105,52.901,83.761z"/>
					<path class="st8" d="M45.998,92.574c-0.613-5.906,2.202-11.148,6.285-11.708c4.084-0.561,7.89,3.774,8.503,9.682
						c0.612,5.905-2.204,11.147-6.287,11.706C50.415,102.814,46.61,98.48,45.998,92.574z"/>
				</g>
				<path class="st9" d="M70.035,46.631c0,0-12.121,14.383-7.479,27.793c0.773,15.989-0.774,21.404-5.932,25.789
					c1.29-15.473-0.257-20.631-5.931-18.827C48.373,69.266,53.378,36.615,70.035,46.631z"/>
				<path class="st9" d="M107.322,46.631c0,0,12.122,14.383,7.479,27.793c-0.773,15.989,0.774,21.404,5.933,25.789
					c-1.289-15.473,0.258-20.631,5.93-18.827C128.985,69.266,123.978,36.615,107.322,46.631z"/>
			</g>
			<g>
				<g>
					<path class="st6" d="M76.329,81.028c-3.021,0-5.472,2.451-5.472,5.473c0,3.024,2.452,5.475,5.472,5.475
						c3.022,0,5.473-2.451,5.473-5.475C81.802,83.479,79.351,81.028,76.329,81.028z M73.696,86.712
						c-0.812,0-1.471-0.659-1.471-1.473c0-0.813,0.66-1.474,1.471-1.474c0.817,0,1.475,0.661,1.475,1.474
						C75.17,86.053,74.513,86.712,73.696,86.712z"/>
					<circle class="st10" cx="73.697" cy="85.239" r="1.473"/>
				</g>
				<g>
					<path class="st6" d="M102.846,81.028c-3.021,0-5.473,2.451-5.473,5.473c0,3.024,2.453,5.475,5.473,5.475
						c3.023,0,5.473-2.451,5.473-5.475C108.319,83.479,105.87,81.028,102.846,81.028z M100.214,86.712
						c-0.813,0-1.474-0.659-1.474-1.473c0-0.813,0.661-1.474,1.474-1.474c0.815,0,1.474,0.661,1.474,1.474
						C101.688,86.053,101.029,86.712,100.214,86.712z"/>
					<circle class="st10" cx="100.214" cy="85.239" r="1.474"/>
				</g>
			</g>
			<path class="st10" d="M88.727,118.925c6.783,0,12.284-2.241,12.284-5.006H76.441C76.441,116.684,81.941,118.925,88.727,118.925z"
				/>
		</g>
	</g>
</g>
</svg>