<!-- Generator: Adobe Illustrator 19.2.0, SVG Export Plug-In  -->
<svg version="1.1"
	 xmlns="http://www.w3.org/2000/svg" xmlns:xlink="http://www.w3.org/1999/xlink" xmlns:a="http://ns.adobe.com/AdobeSVGViewerExtensions/3.0/"
	 x="0px" y="0px" width="127.791px" height="166.102px" viewBox="0 0 127.791 166.102"
	 style="enable-background:new 0 0 127.791 166.102;" xml:space="preserve">
<style type="text/css">
	.st0{fill:#AE5C59;}
	.st1{fill:#FFC865;}
	.st2{fill:#FFFFFC;}
	.st3{fill:#464645;}
	.st4{fill:#5F5F5E;}
	.st5{opacity:0.28;}
</style>
<defs>
</defs>
<g>
	<g>
		<circle class="st0" cx="63.806" cy="61.041" r="35.854"/>
		<path class="st1" d="M93.502,61.592c-0.123,0-0.24,0.041-0.363,0.055c-2.164-18.873-14.775-33.373-30.058-33.373
			c-15.31,0-27.943,14.558-30.07,33.483c-2.475,0.744-4.334,3.955-4.334,7.804c0,4.202,2.227,7.609,5.041,7.909
			c2.014,9.719,6.867,17.932,13.338,23.121v9.17h30.421l-0.047-9.258c7.311-5.078,12.867-12.564,15.033-23.129
			c0.338,0.096,0.685,0.154,1.039,0.154c3,0,5.432-3.567,5.432-7.968S96.502,61.592,93.502,61.592z"/>
		<path class="st2" d="M86.938,106.5c0,0-1.149-8.701-5.948-5.987c-8.764,4.958-16.242,7.015-18.067,7.362
			c-1.825-0.348-8.688-1.85-17.451-6.809c-4.799-2.714-4.799,5.434-4.799,5.434l23.133,28.383L86.938,106.5z"/>
		<polygon class="st3" points="127.61,133.779 86.938,106.5 63.806,134.025 40.673,106.5 0,133.779 0.027,166.102 127.791,166.102 
					"/>
		<path class="st0" d="M34.517,48.444c-0.832,2.735-4.508,13.151-0.862,14.847c4.001,1.863,12.132-7.438,14.607-9.657
			c0.109,1.707-0.45,3.812,0.901,5.04c1.646,1.5,4.03,0.09,5.61-0.833c4.259-2.487,7.235-5.53,10.439-9.202
			c-0.497,3.447,1.413,6.281,5.035,5.33c4.895-1.283,8.867-6.27,12.353-9.564c-0.282,4.707,4.819,4.691,7.716,1.947
			c1.065-1.008,2.605-3.734,2.752-5.113c0.529-4.977-7.056-8.724-10.705-10.926c-5.268-3.176-9.359-5.12-15.619-5.127
			c-8.067-0.008-15.966,1.515-21.811,7.324c-1.043,1.037-4.418,3.834-2.805,4.775L34.517,48.444z"/>
		<path class="st3" d="M63.806,0L1.979,22.627v5.419l27.088,7.329v16.408c0,0,10.777-3.084,34.738-4.604
			c23.339,1.398,34.738,4.604,34.738,4.604V35.375l27.088-7.329v-5.419L63.806,0z"/>
		<path class="st4" d="M119.486,65.163c1.067-0.2,1.876-1.133,1.876-2.259c0-1.27-1.03-2.301-2.302-2.301h-0.392V18.631
			c0-1.75-1.417-3.168-3.166-3.168c-1.749,0-3.167,1.418-3.167,3.168v41.973h-0.024c-1.27,0-2.301,1.031-2.301,2.301
			c0,1.008,0.65,1.853,1.551,2.166c-3.141,6.706-5.129,11.696-4.284,12.437c5.956,5.226,10.495,5.226,16.451,0
			C124.568,76.77,122.619,71.854,119.486,65.163z"/>
	</g>
	<g class="st5">
		<path class="st0" d="M64.705,96.895c19.803,0,34.428-16.053,34.428-35.854c0-19.803-16.051-35.855-35.854-35.855L64.705,96.895z"
			/>
		<path class="st1" d="M63.806,109.76h13.671l-0.047-9.258c7.311-5.078,12.867-12.564,15.033-23.129
			c0.338,0.096,0.685,0.154,1.039,0.154c3,0,5.432-3.567,5.432-7.968s-2.432-7.968-5.432-7.968c-0.123,0-0.24,0.041-0.363,0.055
			c-2.164-18.873-14.775-33.373-30.058-33.373L63.806,109.76z"/>
		<path class="st2" d="M63.806,134.883L86.938,106.5c0,0-1.149-8.701-5.948-5.987c-8.764,4.958-16.242,7.015-18.067,7.362
			L63.806,134.883z"/>
		<polygon class="st3" points="63.806,166.102 127.791,166.102 127.61,133.779 86.938,106.5 63.806,134.025 		"/>
		<path class="st0" d="M81.66,30.313c-5.266-3.176-9.358-5.12-15.618-5.127c-0.983,0-1.964,0.024-2.94,0.072v24.961
			c0.469-0.515,0.936-1.038,1.409-1.58c-0.498,3.447,1.412,6.281,5.034,5.33c4.894-1.283,8.865-6.27,12.353-9.564
			c-0.283,4.707,4.818,4.691,7.715,1.947c1.065-1.008,2.605-3.734,2.752-5.113C92.895,36.262,85.311,32.515,81.66,30.313z"/>
		<path class="st3" d="M63.102,47.18c23.339,1.398,34.738,4.604,34.738,4.604V35.375l27.089-7.329v-5.419L63.102,0V47.18z"/>
		<path class="st4" d="M118.784,65.163c1.067-0.2,1.876-1.133,1.876-2.259c0-1.27-1.031-2.301-2.303-2.301h-0.391V18.631
			c0-1.75-1.418-3.168-3.168-3.168c-1.748,0-3.166,1.418-3.166,3.168v41.973h-0.024c-1.271,0-2.301,1.031-2.301,2.301
			c0,1.008,0.65,1.853,1.55,2.166c-3.141,6.706-5.128,11.696-4.283,12.437c5.955,5.226,10.494,5.226,16.451,0
			C123.865,76.77,121.916,71.854,118.784,65.163z"/>
	</g>
</g>
</svg>