<!-- Generator: Adobe Illustrator 19.2.0, SVG Export Plug-In  -->
<svg version="1.1"
	 xmlns="http://www.w3.org/2000/svg" xmlns:xlink="http://www.w3.org/1999/xlink" xmlns:a="http://ns.adobe.com/AdobeSVGViewerExtensions/3.0/"
	 x="0px" y="0px" width="124.348px" height="126.068px" viewBox="0 0 124.348 126.068"
	 style="enable-background:new 0 0 124.348 126.068;" xml:space="preserve">
<style type="text/css">
	.st0{clip-path:url(#SVGID_2_);fill:#E3C62B;}
	.st1{clip-path:url(#SVGID_2_);}
	.st2{fill:#F3DBBD;}
	.st3{fill:#DEC8AE;}
	.st4{fill:#F4B092;}
	.st5{fill:#30251C;}
	.st6{fill:#665A48;}
	.st7{fill:#C6C9CC;}
	.st8{fill:#FFFFFF;}
	.st9{clip-path:url(#SVGID_4_);fill:#E3C62B;}
	.st10{clip-path:url(#SVGID_4_);}
</style>
<defs>
</defs>
<g>
	<g>
		<defs>
			<circle id="SVGID_1_" cx="62.174" cy="62.173" r="62.174"/>
		</defs>
		<use xlink:href="#SVGID_1_"  style="overflow:visible;fill:#F39728;"/>
		<clipPath id="SVGID_2_">
			<use xlink:href="#SVGID_1_"  style="overflow:visible;"/>
		</clipPath>
		<circle class="st0" cx="62.174" cy="62.173" r="62.174"/>
		<g class="st1">
			<g>
				<g>
					<g>
						<g>
							<g>
								<path class="st2" d="M81.811,77.216c-0.171-0.034,8.641-2.314,9.182-9.444c0.714-9.387-7.631-7.854-9.109-6.137
									L81.811,77.216z"/>
							</g>
							<g>
								<path class="st2" d="M43.941,76.486c0,0-9.442,0.512-10.95-8.715c-1.51-9.227,7.934-8.253,9.55-6.759L43.941,76.486z"/>
							</g>
						</g>
					</g>
					<g>
						<g>
							<path class="st3" d="M72.889,85.577H51.945c1.443,4.599,1.992,14.428-1.597,17.384c0,0,2.51,8.271,12.068,10.744
								c9.555-2.473,12.068-10.744,12.068-10.744C70.894,100.005,71.443,90.176,72.889,85.577z"/>
							<path class="st2" d="M83.658,64.686c0,14.829-6.536,29.742-20.396,29.986c-14.56,0.258-21.721-15.157-21.721-29.986
								S42.333,38.149,62.6,38.354C83.983,38.568,83.658,49.856,83.658,64.686z"/>
						</g>
						<path class="st4" d="M105.244,125.66c-1.343-21.447-32.454-22.699-32.454-22.699c-1.898,6.826-9.107,7.499-10.124,7.559
							c-1.003-0.056-8.893-0.724-10.794-7.559c0,0-28.744,2.665-29.828,22.699H105.244z"/>
					</g>
				</g>
				<path class="st5" d="M40.666,67.796c0,0,2.184-0.224,3.028-11.604c1.237-16.657,10.44-5.266,19.188-5.158
					c8.529,0.105,16.837-11.713,18.743,5.371c1.094,9.81,2.798,8.954,2.798,8.954s14.514-32.757-22.102-33.695
					C25.908,30.733,40.666,67.796,40.666,67.796z"/>
				<path class="st6" d="M105.244,125.66c-1.343-21.447-30.005-22.699-30.005-22.699c-1.898,6.826-11.556,7.499-12.573,7.559
					c-1.003-0.056-11.344-0.724-13.244-7.559c0,0-29.235,2.665-30.318,22.699H105.244z"/>
				<polygon class="st7" points="70.912,125.578 70.949,109.898 60.987,110.226 51.677,111.532 53.004,125.578 				"/>
				<polygon class="st8" points="52.329,98.956 51.073,102.063 59.68,109.736 49.226,114.634 41.386,103.694 				"/>
				<polygon class="st8" points="72.745,99.447 74.004,102.553 64.907,110.226 75.358,115.126 83.199,103.694 				"/>
				<polygon class="st5" points="67.619,126.068 65.723,113.983 56.903,114.309 56.736,126.068 				"/>
				<polygon class="st5" points="55.759,112.676 57.719,108.756 64.579,108.756 67.52,112.676 64.417,115.942 59.189,115.942 				
					"/>
			</g>
			<path class="st8" d="M63.644,87.059c4.023,0,7.285-1.328,7.285-2.967h-14.57C56.359,85.73,59.62,87.059,63.644,87.059z"/>
			<g>
				<g>
					<path class="st5" d="M55.117,62.173c-1.943,0-3.52,1.576-3.52,3.521c0,1.942,1.576,3.519,3.52,3.519
						c1.942,0,3.52-1.576,3.52-3.519C58.637,63.749,57.059,62.173,55.117,62.173z M53.423,65.828c-0.521,0-0.945-0.424-0.945-0.947
						c0-0.522,0.424-0.948,0.945-0.948c0.526,0,0.95,0.426,0.95,0.948C54.373,65.404,53.949,65.828,53.423,65.828z"/>
					<circle class="st8" cx="53.424" cy="64.881" r="0.948"/>
				</g>
				<g>
					<path class="st5" d="M72.173,62.173c-1.943,0-3.521,1.576-3.521,3.521c0,1.942,1.577,3.519,3.521,3.519
						c1.944,0,3.52-1.576,3.52-3.519C75.692,63.749,74.117,62.173,72.173,62.173z M70.479,65.828c-0.523,0-0.947-0.424-0.947-0.947
						c0-0.522,0.424-0.948,0.947-0.948c0.524,0,0.948,0.426,0.948,0.948C71.428,65.404,71.004,65.828,70.479,65.828z"/>
					<circle class="st8" cx="70.48" cy="64.881" r="0.948"/>
				</g>
			</g>
			<path class="st3" d="M63.644,76.505c-0.759,0-1.376-0.404-1.376-0.906v-2.101c0-0.5,0.617-0.904,1.376-0.904l0,0
				c0.76,0,1.376,0.404,1.376,0.904v2.101C65.021,76.101,64.404,76.505,63.644,76.505L63.644,76.505z"/>
		</g>
	</g>
</g>
</svg>