<svg id="Layer_1" data-name="Layer 1" xmlns="http://www.w3.org/2000/svg" xmlns:xlink="http://www.w3.org/1999/xlink" viewBox="0 0 393.925 88.348">
  <defs>
    <style>
      .cls-1 {
        fill: url(#linear-gradient);
      }

      .cls-2 {
        fill: url(#linear-gradient-2);
      }

      .cls-3 {
        fill: #feb529;
      }

      .cls-4 {
        fill: url(#linear-gradient-3);
      }

      .cls-5 {
        fill: #fff;
      }
    </style>
    <linearGradient id="linear-gradient" x1="-287.1" y1="428.593" x2="-257.871" y2="428.593" gradientTransform="translate(151.746 449.536) rotate(180)" gradientUnits="userSpaceOnUse">
      <stop offset="0" stop-color="#040505"/>
      <stop offset="0.109" stop-color="#1e0c09"/>
      <stop offset="0.286" stop-color="#42170e"/>
      <stop offset="0.465" stop-color="#5e1f12"/>
      <stop offset="0.643" stop-color="#722415"/>
      <stop offset="0.822" stop-color="#7e2816"/>
      <stop offset="1" stop-color="#822917"/>
    </linearGradient>
    <linearGradient id="linear-gradient-2" x1="75.23" y1="428.593" x2="106.825" y2="428.593" gradientTransform="translate(151.746 449.536) rotate(180)" gradientUnits="userSpaceOnUse">
      <stop offset="0" stop-color="#822917"/>
      <stop offset="1" stop-color="#040505"/>
    </linearGradient>
    <linearGradient id="linear-gradient-3" x1="-91.169" y1="-1649.108" x2="-91.169" y2="-1734.378" gradientTransform="matrix(-1, 0, 0, 1, 151.746, 1749.405)" gradientUnits="userSpaceOnUse">
      <stop offset="0" stop-color="#f47121"/>
      <stop offset="0.64" stop-color="#f47022"/>
      <stop offset="0.669" stop-color="#f78918"/>
      <stop offset="0.709" stop-color="#fba50e"/>
      <stop offset="0.749" stop-color="#fdb906"/>
      <stop offset="0.79" stop-color="#ffc502"/>
      <stop offset="0.83" stop-color="#ffc900"/>
      <stop offset="1" stop-color="#eb3e26"/>
    </linearGradient>
  </defs>
  <title>shap computer</title>
  <g>
    <path class="cls-1" d="M409.617,26.857c1.175-6.679,8.578-11.786,17.565-11.786,0.438,0,.856-0.052,1.273-0.03,0.127,0.012.259-.014,0.371,0a4.48,4.48,0,0,0,.451-0.012c7.172,0.159,9.252,5.59,9.569,11.83H409.617Z" transform="translate(-44.921 -15.027)"/>
    <path class="cls-2" d="M44.921,26.857C45.49,20.55,49.027,14.995,56.9,15.027c0.279,0,.56.026,0.847,0.012,0.4-.02.8,0.039,1.207,0.039,8.97,0,16.374,5.1,17.557,11.779H44.921Z" transform="translate(-44.921 -15.027)"/>
    <g>
      <path class="cls-3" d="M413.831,77.658c-1.615,14.174-13.774,25.717-30.587,25.717H102.3c-16.833,0-29.394-11.668-30.611-25.717" transform="translate(-44.921 -15.027)"/>
      <path class="cls-4" d="M56.558,15.027H429.273c-8.863.36-9.977,5.85-10.72,12.792l-0.036,1.206L414.776,74.58c-1.63,14.174-13.9,25.717-30.865,25.717H101.638c-16.986,0-29.661-11.668-30.889-25.717L67.015,29.025l-0.035-1.206c-0.732-6.857-1.823-12.311-10.421-12.78V15.027Z" transform="translate(-44.921 -15.027)"/>
      <path class="cls-5" d="M109.609,94.9a0.512,0.512,0,0,1-.528-0.48,0.524,0.524,0,0,1,.528-0.481h3.716a0.522,0.522,0,0,1,.531.481,0.511,0.511,0,0,1-.531.48h-3.716Zm7.409,0a0.5,0.5,0,0,1-.516-0.48,0.508,0.508,0,0,1,.516-0.481h3.727a0.5,0.5,0,0,1,.516.481,0.494,0.494,0,0,1-.516.48h-3.727Zm7.432,0a0.514,0.514,0,0,1-.545-0.48,0.525,0.525,0,0,1,.545-0.481h3.7a0.5,0.5,0,0,1,.516.481,0.494,0.494,0,0,1-.516.48h-3.7Zm7.4,0a0.5,0.5,0,0,1-.533-0.48,0.513,0.513,0,0,1,.533-0.481h3.7a0.513,0.513,0,0,1,.533.481,0.5,0.5,0,0,1-.533.48h-3.7Zm7.4,0a0.5,0.5,0,0,1-.522-0.48,0.514,0.514,0,0,1,.522-0.481h3.719a0.517,0.517,0,0,1,.533.481,0.506,0.506,0,0,1-.533.48h-3.719Zm7.426,0a0.5,0.5,0,0,1-.533-0.48,0.515,0.515,0,0,1,.533-0.481h3.7a0.513,0.513,0,0,1,.528.481,0.5,0.5,0,0,1-.528.48h-3.7Zm7.409,0a0.505,0.505,0,0,1-.528-0.48,0.516,0.516,0,0,1,.528-0.481h3.7a0.529,0.529,0,0,1,.548.481,0.518,0.518,0,0,1-.548.48h-3.7Zm7.42,0a0.5,0.5,0,0,1-.536-0.48,0.514,0.514,0,0,1,.536-0.481h3.7a0.512,0.512,0,0,1,.53.481,0.5,0.5,0,0,1-.53.48h-3.7Zm7.406,0a0.5,0.5,0,0,1-.524-0.48,0.506,0.506,0,0,1,.524-0.481h3.71a0.511,0.511,0,0,1,.527.481,0.5,0.5,0,0,1-.527.48h-3.71Zm7.418,0a0.494,0.494,0,0,1-.528-0.48,0.5,0.5,0,0,1,.528-0.481h3.692a0.519,0.519,0,0,1,.54.481,0.509,0.509,0,0,1-.54.48h-3.692Zm7.414,0a0.5,0.5,0,0,1-.533-0.48,0.513,0.513,0,0,1,.533-0.481h3.7a0.513,0.513,0,0,1,.533.481,0.5,0.5,0,0,1-.533.48h-3.7Zm7.4,0a0.5,0.5,0,0,1-.522-0.48,0.514,0.514,0,0,1,.522-0.481h3.719a0.517,0.517,0,0,1,.533.481,0.506,0.506,0,0,1-.533.48h-3.719Zm7.426,0a0.5,0.5,0,0,1-.533-0.48,0.515,0.515,0,0,1,.533-0.481h3.7a0.513,0.513,0,0,1,.528.481,0.5,0.5,0,0,1-.528.48h-3.7Zm7.409,0a0.505,0.505,0,0,1-.528-0.48,0.516,0.516,0,0,1,.528-0.481h3.7a0.529,0.529,0,0,1,.548.481,0.518,0.518,0,0,1-.548.48h-3.7Zm7.42,0a0.5,0.5,0,0,1-.536-0.48,0.514,0.514,0,0,1,.536-0.481h3.7a0.512,0.512,0,0,1,.53.481,0.5,0.5,0,0,1-.53.48h-3.7Zm7.406,0a0.5,0.5,0,0,1-.524-0.48,0.506,0.506,0,0,1,.524-0.481h3.71a0.511,0.511,0,0,1,.527.481,0.5,0.5,0,0,1-.527.48h-3.71Zm7.418,0a0.494,0.494,0,0,1-.528-0.48,0.5,0.5,0,0,1,.528-0.481h3.692a0.519,0.519,0,0,1,.54.481,0.509,0.509,0,0,1-.54.48h-3.692Zm7.414,0a0.5,0.5,0,0,1-.533-0.48,0.513,0.513,0,0,1,.533-0.481h3.7a0.513,0.513,0,0,1,.533.481,0.5,0.5,0,0,1-.533.48h-3.7Zm7.4,0a0.5,0.5,0,0,1-.522-0.48,0.514,0.514,0,0,1,.522-0.481h3.719a0.517,0.517,0,0,1,.533.481,0.506,0.506,0,0,1-.533.48h-3.719Zm7.426,0a0.5,0.5,0,0,1-.533-0.48,0.515,0.515,0,0,1,.533-0.481h3.7a0.513,0.513,0,0,1,.528.481,0.5,0.5,0,0,1-.528.48h-3.7Zm7.409,0a0.505,0.505,0,0,1-.528-0.48,0.516,0.516,0,0,1,.528-0.481h3.7a0.529,0.529,0,0,1,.548.481,0.518,0.518,0,0,1-.548.48h-3.7Zm7.42,0a0.5,0.5,0,0,1-.536-0.48,0.514,0.514,0,0,1,.536-0.481h3.7a0.512,0.512,0,0,1,.53.481,0.5,0.5,0,0,1-.53.48h-3.7Zm7.406,0a0.5,0.5,0,0,1-.524-0.48,0.506,0.506,0,0,1,.524-0.481h3.71a0.511,0.511,0,0,1,.527.481,0.5,0.5,0,0,1-.527.48h-3.71Zm7.418,0a0.494,0.494,0,0,1-.528-0.48,0.5,0.5,0,0,1,.528-0.481h3.692a0.519,0.519,0,0,1,.54.481,0.509,0.509,0,0,1-.54.48h-3.692Zm0.547,0a0.5,0.5,0,0,1-.533-0.48,0.513,0.513,0,0,1,.533-0.481h3.7a0.513,0.513,0,0,1,.533.481,0.5,0.5,0,0,1-.533.48h-3.7Zm7.4,0a0.5,0.5,0,0,1-.522-0.48,0.514,0.514,0,0,1,.522-0.481H291.8a0.517,0.517,0,0,1,.533.481,0.506,0.506,0,0,1-.533.48h-3.719Zm7.426,0a0.5,0.5,0,0,1-.533-0.48,0.515,0.515,0,0,1,.533-0.481h3.7a0.513,0.513,0,0,1,.528.481,0.5,0.5,0,0,1-.528.48h-3.7Zm7.409,0a0.505,0.505,0,0,1-.528-0.48,0.516,0.516,0,0,1,.528-0.481h3.7a0.529,0.529,0,0,1,.548.481,0.518,0.518,0,0,1-.548.48h-3.7Zm7.42,0a0.5,0.5,0,0,1-.536-0.48,0.514,0.514,0,0,1,.536-0.481h3.7a0.512,0.512,0,0,1,.53.481,0.5,0.5,0,0,1-.53.48h-3.7Zm7.406,0a0.5,0.5,0,0,1-.524-0.48,0.506,0.506,0,0,1,.524-0.481h3.71a0.511,0.511,0,0,1,.527.481,0.5,0.5,0,0,1-.527.48h-3.71Zm7.418,0a0.494,0.494,0,0,1-.528-0.48,0.5,0.5,0,0,1,.528-0.481h3.692a0.519,0.519,0,0,1,.54.481,0.509,0.509,0,0,1-.54.48h-3.692Zm0,0a0.5,0.5,0,0,1-.531-0.48,0.514,0.514,0,0,1,.531-0.481h3.707a0.517,0.517,0,0,1,.533.481,0.506,0.506,0,0,1-.533.48h-3.707Zm7.414,0a0.5,0.5,0,0,1-.525-0.48,0.507,0.507,0,0,1,.525-0.481h3.707a0.513,0.513,0,0,1,.525.481,0.5,0.5,0,0,1-.525.48h-3.707Zm7.412,0a0.5,0.5,0,0,1-.525-0.48,0.505,0.505,0,0,1,.525-0.481h3.71a0.512,0.512,0,0,1,.522.481,0.5,0.5,0,0,1-.522.48h-3.71Zm7.414,0a0.5,0.5,0,0,1-.527-0.48,0.507,0.507,0,0,1,.527-0.481h3.7a0.511,0.511,0,0,1,.531.481,0.5,0.5,0,0,1-.531.48h-3.7Zm7.409,0a0.5,0.5,0,0,1-.524-0.48,0.508,0.508,0,0,1,.524-0.481h3.71a0.521,0.521,0,0,1,.533.481,0.51,0.51,0,0,1-.533.48H354.8Zm7.409,0a0.506,0.506,0,0,1-.528-0.48,0.517,0.517,0,0,1,.528-0.481h3.711a0.512,0.512,0,0,1,.529.481,0.5,0.5,0,0,1-.529.48h-3.711Zm7.412,0a0.508,0.508,0,0,1-.523-0.48,0.519,0.519,0,0,1,.523-0.481h3.729a0.52,0.52,0,0,1,.518.481,0.509,0.509,0,0,1-.518.48h-3.729Zm7.419,0a0.506,0.506,0,0,1-.531-0.48,0.517,0.517,0,0,1,.531-0.481H378.9c0.609,0,1.207-.02,1.808-0.051a0.516,0.516,0,0,1,.566.453,0.483,0.483,0,0,1-.489.506c-0.616.04-1.259,0.053-1.885,0.053h-1.858Zm-271.13-.013H105.9a32.215,32.215,0,0,1-3.748-.33,0.478,0.478,0,0,1-.443-0.545,0.507,0.507,0,0,1,.6-0.4,32.429,32.429,0,0,0,3.634.311,0.483,0.483,0,1,1-.032.963h0Zm278.5-.452a0.489,0.489,0,0,1-.506-0.388,0.475,0.475,0,0,1,.415-0.56,29.678,29.678,0,0,0,3.516-.829,0.536,0.536,0,0,1,.672.313,0.465,0.465,0,0,1-.343.6,30.918,30.918,0,0,1-3.648.859c-0.035,0-.072,0-0.105,0h0Zm-285.8-.606a0.929,0.929,0,0,1-.15-0.02,29.144,29.144,0,0,1-3.535-1.19,0.469,0.469,0,0,1-.275-0.64,0.548,0.548,0,0,1,.7-0.238,32.2,32.2,0,0,0,3.4,1.141,0.463,0.463,0,0,1,.352.6,0.509,0.509,0,0,1-.495.351h0Zm292.828-1.5a0.531,0.531,0,0,1-.478-0.274,0.465,0.465,0,0,1,.235-0.642,26.423,26.423,0,0,0,3.155-1.651,0.576,0.576,0,0,1,.736.129,0.467,0.467,0,0,1-.15.68,29.738,29.738,0,0,1-3.272,1.713,0.655,0.655,0,0,1-.225.045h0ZM91.861,91.081a0.74,0.74,0,0,1-.276-0.064,28.664,28.664,0,0,1-3.077-2,0.437,0.437,0,0,1-.058-0.674,0.542,0.542,0,0,1,.733-0.071,28.745,28.745,0,0,0,2.956,1.919,0.472,0.472,0,0,1,.179.668,0.572,0.572,0,0,1-.457.224h0Zm305.717-2.487a0.528,0.528,0,0,1-.4-0.161,0.455,0.455,0,0,1,.05-0.685,27.5,27.5,0,0,0,2.559-2.351,0.551,0.551,0,0,1,.737-0.044,0.442,0.442,0,0,1,.057.676,29.623,29.623,0,0,1-2.656,2.447,0.633,0.633,0,0,1-.353.118h0ZM86.141,86.81a0.576,0.576,0,0,1-.381-0.14,25.436,25.436,0,0,1-2.386-2.665,0.457,0.457,0,0,1,.117-0.675,0.576,0.576,0,0,1,.739.1,23.83,23.83,0,0,0,2.306,2.574,0.455,0.455,0,0,1-.032.678,0.514,0.514,0,0,1-.363.125h0Zm316.281-3.3a0.669,0.669,0,0,1-.3-0.083,0.471,0.471,0,0,1-.155-0.669,25.585,25.585,0,0,0,1.811-2.878,0.556,0.556,0,0,1,.717-0.216,0.469,0.469,0,0,1,.237.647,25.566,25.566,0,0,1-1.878,2.98,0.53,0.53,0,0,1-.437.219h0ZM81.856,81.325a0.536,0.536,0,0,1-.475-0.25,24.972,24.972,0,0,1-1.529-3.137,0.466,0.466,0,0,1,.31-0.617,0.546,0.546,0,0,1,.68.283,26.2,26.2,0,0,0,1.486,3.022,0.486,0.486,0,0,1-.232.657,0.558,0.558,0,0,1-.24.041h0Zm323.826-3.862a0.32,0.32,0,0,1-.17-0.035,0.472,0.472,0,0,1-.343-0.611,23.226,23.226,0,0,0,.975-3.191,0.518,0.518,0,0,1,.617-0.372,0.49,0.49,0,0,1,.431.564,26.132,26.132,0,0,1-1.021,3.318,0.5,0.5,0,0,1-.488.327h0ZM79.276,75.02a0.524,0.524,0,0,1-.509-0.368,24.919,24.919,0,0,1-.581-3.392,0.49,0.49,0,0,1,.481-0.53,0.5,0.5,0,0,1,.569.439,22.539,22.539,0,0,0,.583,3.269,0.5,0.5,0,0,1-.416.574,0.534,0.534,0,0,1-.126.008h0Zm327.914-4.15h-0.04a0.525,0.525,0,0,1-.5-0.52l0.284-3.367a0.51,0.51,0,0,1,.551-0.453,0.519,0.519,0,0,1,.5.523l-0.257,3.365a0.542,0.542,0,0,1-.534.452h0ZM78.445,68.328a0.515,0.515,0,0,1-.528-0.448l-0.264-3.369a0.511,0.511,0,0,1,.5-0.514,0.522,0.522,0,0,1,.569.446l0.246,3.365a0.5,0.5,0,0,1-.48.519H78.445Zm329.279-4.193h-0.038a0.493,0.493,0,0,1-.481-0.518l0.264-3.371a0.519,0.519,0,0,1,.566-0.446,0.5,0.5,0,0,1,.487.517l-0.265,3.373a0.522,0.522,0,0,1-.533.446h0ZM77.917,61.582a0.5,0.5,0,0,1-.522-0.439l-0.264-3.37a0.529,0.529,0,0,1,.489-0.514,0.513,0.513,0,0,1,.572.453l0.263,3.364a0.489,0.489,0,0,1-.495.506H77.917ZM408.258,57.4a0.08,0.08,0,0,1-.04-0.007,0.48,0.48,0,0,1-.484-0.513L408,53.507a0.525,0.525,0,0,1,.569-0.434,0.474,0.474,0,0,1,.485.513L408.8,56.95a0.525,0.525,0,0,1-.538.454h0ZM77.407,54.857a0.517,0.517,0,0,1-.528-0.452l-0.257-3.358a0.5,0.5,0,0,1,.486-0.525,0.514,0.514,0,0,1,.569.446l0.257,3.37a0.5,0.5,0,0,1-.48.512,0.2,0.2,0,0,0-.047.006h0ZM408.8,50.66h-0.031a0.481,0.481,0,0,1-.489-0.514l0.264-3.372a0.531,0.531,0,0,1,.564-0.451,0.517,0.517,0,0,1,.494.525l-0.271,3.367a0.508,0.508,0,0,1-.53.445h0ZM76.879,48.12a0.5,0.5,0,0,1-.521-0.446l-0.264-3.379a0.514,0.514,0,0,1,.493-0.511,0.508,0.508,0,0,1,.559.451L77.418,47.6a0.509,0.509,0,0,1-.492.518H76.879Zm332.458-4.2H409.31a0.509,0.509,0,0,1-.508-0.507l0.264-3.369a0.535,0.535,0,0,1,.577-0.447,0.505,0.505,0,0,1,.5.51l-0.278,3.374a0.5,0.5,0,0,1-.523.439h0ZM76.373,41.382a0.513,0.513,0,0,1-.531-0.452l-0.257-3.362a0.483,0.483,0,0,1,.486-0.514,0.5,0.5,0,0,1,.559.445l0.261,3.364a0.487,0.487,0,0,1-.486.516,0.266,0.266,0,0,1-.032,0h0Zm333.488-4.187h-0.029a0.512,0.512,0,0,1-.485-0.524l0.266-3.364a0.525,0.525,0,0,1,.567-0.437,0.477,0.477,0,0,1,.485.512L410.4,36.748a0.527,0.527,0,0,1-.544.446h0ZM75.842,34.649a0.519,0.519,0,0,1-.527-0.452l-0.258-3.365a0.5,0.5,0,0,1,.493-0.518,0.527,0.527,0,0,1,.569.445l0.255,3.373a0.5,0.5,0,0,1-.484.518H75.842Zm334.608-4.2h-0.072a0.481,0.481,0,0,1-.462-0.538l0.1-.649c0.11-.933.2-1.83,0.3-2.691a0.515,0.515,0,0,1,.576-0.434,0.507,0.507,0,0,1,.476.534c-0.108.857-.2,1.752-0.31,2.7l-0.091.664a0.515,0.515,0,0,1-.517.414h0ZM75.3,27.913a0.523,0.523,0,0,1-.533-0.437l-0.135-1.184c-0.062-.769-0.126-1.486-0.211-2.171a0.482,0.482,0,0,1,.475-0.53,0.5,0.5,0,0,1,.571.429c0.079,0.688.155,1.417,0.24,2.181l0.12,1.184a0.512,0.512,0,0,1-.48.528H75.3Zm336.04-4.161h-0.09a0.49,0.49,0,0,1-.431-0.552,24.336,24.336,0,0,1,.887-3.355,0.556,0.556,0,0,1,.674-0.3,0.467,0.467,0,0,1,.332.609,22.591,22.591,0,0,0-.838,3.214,0.541,0.541,0,0,1-.534.388h0ZM74.409,21.212a0.518,0.518,0,0,1-.524-0.38,13.269,13.269,0,0,0-1.082-3.1,0.473,0.473,0,0,1,.249-0.642,0.549,0.549,0,0,1,.71.24,14.927,14.927,0,0,1,1.17,3.3,0.5,0.5,0,0,1-.419.577,0.84,0.84,0,0,1-.1,0h0Z" transform="translate(-44.921 -15.027)"/>
    </g>
  </g>
</svg>
