<svg id="Layer_1" data-name="Layer 1" xmlns="http://www.w3.org/2000/svg" xmlns:xlink="http://www.w3.org/1999/xlink" viewBox="0 0 393.27 88.348">
  <defs>
    <style>
      .cls-1 {
        fill: url(#linear-gradient);
      }

      .cls-2 {
        fill: url(#linear-gradient-2);
      }

      .cls-3 {
        fill: #ca077e;
      }

      .cls-4 {
        fill: url(#linear-gradient-3);
      }

      .cls-5 {
        fill: #fff;
      }
    </style>
    <linearGradient id="linear-gradient" x1="-286.445" y1="423.292" x2="-257.653" y2="423.292" gradientTransform="translate(151.746 449.536) rotate(180)" gradientUnits="userSpaceOnUse">
      <stop offset="0" stop-color="#030404"/>
      <stop offset="1" stop-color="#a70b58"/>
    </linearGradient>
    <linearGradient id="linear-gradient-2" x1="75.702" y1="423.292" x2="106.825" y2="423.292" gradientTransform="translate(151.746 449.536) rotate(180)" gradientUnits="userSpaceOnUse">
      <stop offset="0" stop-color="#a70b58"/>
      <stop offset="1" stop-color="#030404"/>
    </linearGradient>
    <linearGradient id="linear-gradient-3" x1="-90.827" y1="-1643.807" x2="-90.827" y2="-1729.077" gradientTransform="matrix(-1, 0, 0, 1, 151.746, 1749.405)" gradientUnits="userSpaceOnUse">
      <stop offset="0" stop-color="#a70b58"/>
      <stop offset="0.64" stop-color="#a70b58"/>
      <stop offset="0.83" stop-color="#cc1c82"/>
      <stop offset="1" stop-color="#4b0d0b"/>
    </linearGradient>
  </defs>
  <title>shap computer3</title>
  <g>
    <path class="cls-1" d="M409.4,32.159c1.157-6.679,8.448-11.786,17.3-11.786,0.431,0,.842-0.052,1.253-0.03,0.127,0.012.256-.014,0.367,0a4.337,4.337,0,0,0,.444-0.012c7.065,0.159,9.114,5.59,9.427,11.83H409.4Z" transform="translate(-44.921 -20.328)"/>
    <path class="cls-2" d="M44.921,32.159c0.56-6.308,4.044-11.863,11.8-11.83,0.275,0,.553.026,0.835,0.012,0.4-.02.787,0.039,1.189,0.039,8.836,0,16.129,5.1,17.295,11.779H44.921Z" transform="translate(-44.921 -20.328)"/>
    <g>
      <path class="cls-3" d="M413.549,82.959c-1.591,14.174-13.569,25.717-30.129,25.717H101.447c-16.58,0-28.954-11.668-30.152-25.717" transform="translate(-44.921 -20.328)"/>
      <path class="cls-4" d="M56.384,20.328H428.761c-8.732.36-9.83,5.85-10.561,12.792l-0.036,1.206L414.48,79.881c-1.606,14.174-13.692,25.717-30.4,25.717H100.791c-16.731,0-29.218-11.668-30.427-25.717L66.685,34.326,66.651,33.12c-0.72-6.857-1.8-12.311-10.266-12.78V20.328Z" transform="translate(-44.921 -20.328)"/>
      <path class="cls-5" d="M108.645,100.2a0.507,0.507,0,0,1-.52-0.48,0.518,0.518,0,0,1,.52-0.481H112.3a0.518,0.518,0,0,1,.524.481,0.507,0.507,0,0,1-.524.48h-3.659Zm7.3,0a0.492,0.492,0,0,1-.507-0.48,0.5,0.5,0,0,1,.507-0.481h3.671a0.5,0.5,0,0,1,.509.481,0.49,0.49,0,0,1-.509.48h-3.671Zm7.321,0a0.508,0.508,0,0,1-.536-0.48,0.519,0.519,0,0,1,.536-0.481h3.65a0.5,0.5,0,0,1,.507.481,0.489,0.489,0,0,1-.507.48h-3.65Zm7.292,0a0.5,0.5,0,0,1-.526-0.48,0.51,0.51,0,0,1,.526-0.481H134.2a0.509,0.509,0,0,1,.525.481,0.5,0.5,0,0,1-.525.48h-3.649Zm7.294,0a0.5,0.5,0,0,1-.515-0.48,0.509,0.509,0,0,1,.515-0.481h3.662a0.512,0.512,0,0,1,.525.481,0.5,0.5,0,0,1-.525.48h-3.662Zm7.313,0a0.5,0.5,0,0,1-.524-0.48,0.509,0.509,0,0,1,.524-0.481h3.649a0.509,0.509,0,0,1,.52.481,0.5,0.5,0,0,1-.52.48h-3.649Zm7.3,0a0.5,0.5,0,0,1-.52-0.48,0.511,0.511,0,0,1,.52-0.481h3.646a0.524,0.524,0,0,1,.54.481,0.513,0.513,0,0,1-.54.48H152.46Zm7.31,0a0.5,0.5,0,0,1-.529-0.48,0.51,0.51,0,0,1,.529-0.481h3.646a0.508,0.508,0,0,1,.522.481,0.5,0.5,0,0,1-.522.48H159.77Zm7.3,0a0.491,0.491,0,0,1-.517-0.48,0.5,0.5,0,0,1,.517-0.481h3.655a0.507,0.507,0,0,1,.518.481,0.5,0.5,0,0,1-.518.48h-3.655Zm6.555,0a0.491,0.491,0,0,1-.517-0.48,0.5,0.5,0,0,1,.517-0.481h3.655a0.507,0.507,0,0,1,.518.481,0.5,0.5,0,0,1-.518.48h-3.655Zm137.978,0a0.489,0.489,0,0,1-.52-0.48,0.5,0.5,0,0,1,.52-0.481h3.637a0.514,0.514,0,0,1,.531.481,0.5,0.5,0,0,1-.531.48H311.6Zm7.3,0a0.494,0.494,0,0,1-.524-0.48,0.5,0.5,0,0,1,.524-0.481h3.644a0.519,0.519,0,0,1,.531.481,0.508,0.508,0,0,1-.531.48H318.9Zm7.3,0a0.5,0.5,0,0,1-.522-0.48,0.51,0.51,0,0,1,.522-0.481h3.651a0.513,0.513,0,0,1,.527.481,0.5,0.5,0,0,1-.527.48H326.2Zm7.3,0a0.493,0.493,0,0,1-.518-0.48,0.5,0.5,0,0,1,.518-0.481h3.651a0.509,0.509,0,0,1,.518.481,0.5,0.5,0,0,1-.518.48H333.5Zm7.3,0a0.49,0.49,0,0,1-.517-0.48,0.5,0.5,0,0,1,.517-0.481h3.655a0.507,0.507,0,0,1,.513.481,0.5,0.5,0,0,1-.513.48H340.8Zm7.3,0a0.492,0.492,0,0,1-.518-0.48,0.5,0.5,0,0,1,.518-0.481h3.644a0.507,0.507,0,0,1,.524.481,0.5,0.5,0,0,1-.524.48H348.1Zm7.3,0a0.493,0.493,0,0,1-.517-0.48,0.5,0.5,0,0,1,.517-0.481h3.655a0.516,0.516,0,0,1,.525.481,0.505,0.505,0,0,1-.525.48H355.4Zm7.3,0a0.5,0.5,0,0,1-.52-0.48,0.511,0.511,0,0,1,.52-0.481h3.655a0.507,0.507,0,0,1,.52.481,0.5,0.5,0,0,1-.52.48H362.7Zm7.3,0a0.5,0.5,0,0,1-.514-0.48A0.514,0.514,0,0,1,370,99.24h3.673a0.516,0.516,0,0,1,.511.481,0.5,0.5,0,0,1-.511.48H370Zm-124.112,0a0.489,0.489,0,0,1-.52-0.48,0.5,0.5,0,0,1,.52-0.481h3.637a0.514,0.514,0,0,1,.531.481,0.5,0.5,0,0,1-.531.48H245.89Zm7.3,0a0.494,0.494,0,0,1-.524-0.48,0.5,0.5,0,0,1,.524-0.481h3.644a0.519,0.519,0,0,1,.531.481,0.508,0.508,0,0,1-.531.48h-3.644Zm7.3,0a0.5,0.5,0,0,1-.522-0.48,0.51,0.51,0,0,1,.522-0.481h3.651a0.513,0.513,0,0,1,.527.481,0.5,0.5,0,0,1-.527.48h-3.651Zm7.3,0a0.493,0.493,0,0,1-.518-0.48,0.5,0.5,0,0,1,.518-0.481h3.651a0.509,0.509,0,0,1,.518.481,0.5,0.5,0,0,1-.518.48h-3.651Zm7.3,0a0.49,0.49,0,0,1-.517-0.48,0.5,0.5,0,0,1,.517-0.481h3.655a0.507,0.507,0,0,1,.513.481,0.5,0.5,0,0,1-.513.48h-3.655Zm7.3,0a0.492,0.492,0,0,1-.518-0.48,0.5,0.5,0,0,1,.518-0.481h3.644a0.507,0.507,0,0,1,.524.481,0.5,0.5,0,0,1-.524.48H282.4Zm7.3,0a0.493,0.493,0,0,1-.517-0.48,0.5,0.5,0,0,1,.517-0.481h3.655a0.516,0.516,0,0,1,.525.481,0.505,0.505,0,0,1-.525.48h-3.655Zm7.3,0a0.5,0.5,0,0,1-.52-0.48,0.511,0.511,0,0,1,.52-0.481h3.655a0.507,0.507,0,0,1,.52.481,0.5,0.5,0,0,1-.52.48h-3.655Zm7.3,0a0.5,0.5,0,0,1-.514-0.48,0.514,0.514,0,0,1,.514-0.481h3.673a0.516,0.516,0,0,1,.511.481,0.5,0.5,0,0,1-.511.48h-3.673Zm-124.112,0a0.489,0.489,0,0,1-.52-0.48,0.5,0.5,0,0,1,.52-0.481h3.637a0.514,0.514,0,0,1,.531.481,0.5,0.5,0,0,1-.531.48H180.18Zm7.3,0a0.494,0.494,0,0,1-.524-0.48,0.5,0.5,0,0,1,.524-0.481h3.644a0.519,0.519,0,0,1,.531.481,0.508,0.508,0,0,1-.531.48h-3.644Zm7.3,0a0.5,0.5,0,0,1-.522-0.48,0.51,0.51,0,0,1,.522-0.481h3.651a0.513,0.513,0,0,1,.527.481,0.5,0.5,0,0,1-.527.48h-3.651Zm7.3,0a0.493,0.493,0,0,1-.518-0.48,0.5,0.5,0,0,1,.518-0.481h3.651a0.509,0.509,0,0,1,.518.481,0.5,0.5,0,0,1-.518.48h-3.651Zm7.3,0a0.49,0.49,0,0,1-.517-0.48,0.5,0.5,0,0,1,.517-0.481h3.655a0.507,0.507,0,0,1,.513.481,0.5,0.5,0,0,1-.513.48h-3.655Zm7.3,0a0.492,0.492,0,0,1-.518-0.48,0.5,0.5,0,0,1,.518-0.481h3.644a0.507,0.507,0,0,1,.524.481,0.5,0.5,0,0,1-.524.48h-3.644Zm7.3,0a0.493,0.493,0,0,1-.517-0.48,0.5,0.5,0,0,1,.517-0.481h3.655a0.516,0.516,0,0,1,.525.481,0.505,0.505,0,0,1-.525.48h-3.655Zm7.3,0a0.5,0.5,0,0,1-.52-0.48,0.511,0.511,0,0,1,.52-0.481h3.655a0.507,0.507,0,0,1,.52.481,0.5,0.5,0,0,1-.52.48h-3.655Zm7.3,0a0.5,0.5,0,0,1-.514-0.48,0.514,0.514,0,0,1,.514-0.481h3.673a0.516,0.516,0,0,1,.511.481,0.5,0.5,0,0,1-.511.48h-3.673Zm138.729,0a0.5,0.5,0,0,1-.524-0.48,0.513,0.513,0,0,1,.524-0.481h1.829c0.6,0,1.189-.02,1.782-0.051a0.51,0.51,0,0,1,.556.453,0.479,0.479,0,0,1-.482.506c-0.606.04-1.24,0.053-1.857,0.053h-1.829ZM105,100.188H104.99a31.251,31.251,0,0,1-3.693-.33,0.476,0.476,0,0,1-.436-0.545,0.5,0.5,0,0,1,.595-0.4,31.514,31.514,0,0,0,3.58.311,0.522,0.522,0,0,1,.491.5,0.515,0.515,0,0,1-.522.467h0Zm279.57-.452a0.484,0.484,0,0,1-.5-0.388,0.474,0.474,0,0,1,.407-0.56,28.94,28.94,0,0,0,3.466-.829,0.526,0.526,0,0,1,.662.313,0.469,0.469,0,0,1-.338.6,30.132,30.132,0,0,1-3.595.859c-0.035,0-.071,0-0.1,0h0Zm-286.76-.606a0.866,0.866,0,0,1-.146-0.02,28.484,28.484,0,0,1-3.484-1.19,0.471,0.471,0,0,1-.269-0.64,0.536,0.536,0,0,1,.687-0.238,31.461,31.461,0,0,0,3.353,1.141,0.462,0.462,0,0,1,.346.6,0.5,0.5,0,0,1-.487.351h0Zm293.683-1.5a0.523,0.523,0,0,1-.471-0.274,0.468,0.468,0,0,1,.231-0.642,25.822,25.822,0,0,0,3.108-1.651,0.56,0.56,0,0,1,.724.129,0.471,0.471,0,0,1-.145.68,29.323,29.323,0,0,1-3.224,1.713,0.636,0.636,0,0,1-.222.045h0ZM91.161,96.383a0.719,0.719,0,0,1-.271-0.064,28.036,28.036,0,0,1-3.033-2,0.441,0.441,0,0,1-.056-0.674,0.528,0.528,0,0,1,.722-0.071,28.285,28.285,0,0,0,2.913,1.919,0.474,0.474,0,0,1,.174.668,0.557,0.557,0,0,1-.449.224h0ZM397.54,93.9a0.515,0.515,0,0,1-.389-0.161,0.46,0.46,0,0,1,.047-0.685A27.136,27.136,0,0,0,399.72,90.7a0.535,0.535,0,0,1,.725-0.044,0.447,0.447,0,0,1,.058.676,29.373,29.373,0,0,1-2.619,2.447,0.611,0.611,0,0,1-.345.118h0ZM85.526,92.111a0.558,0.558,0,0,1-.374-0.14A25.113,25.113,0,0,1,82.8,89.307a0.463,0.463,0,0,1,.115-0.675,0.563,0.563,0,0,1,.729.1,23.712,23.712,0,0,0,2.271,2.574,0.459,0.459,0,0,1-.033.678,0.5,0.5,0,0,1-.357.125h0Zm316.785-3.3a0.645,0.645,0,0,1-.291-0.083,0.474,0.474,0,0,1-.153-0.669,25.766,25.766,0,0,0,1.782-2.878,0.545,0.545,0,0,1,.707-0.216,0.473,0.473,0,0,1,.235.647,25.633,25.633,0,0,1-1.851,2.98,0.519,0.519,0,0,1-.429.219h0ZM81.305,86.626a0.526,0.526,0,0,1-.467-0.25,25.114,25.114,0,0,1-1.507-3.137,0.468,0.468,0,0,1,.306-0.617,0.536,0.536,0,0,1,.671.283,26.512,26.512,0,0,0,1.462,3.022,0.49,0.49,0,0,1-.227.657,0.542,0.542,0,0,1-.236.041h0Zm324.217-3.862a0.31,0.31,0,0,1-.167-0.035,0.472,0.472,0,0,1-.338-0.611,23.9,23.9,0,0,0,.96-3.191,0.51,0.51,0,0,1,.607-0.372,0.489,0.489,0,0,1,.424.564A26.12,26.12,0,0,1,406,82.437a0.5,0.5,0,0,1-.48.327h0ZM78.765,80.321a0.516,0.516,0,0,1-.5-0.368,25.413,25.413,0,0,1-.573-3.392,0.487,0.487,0,0,1,.475-0.53,0.5,0.5,0,0,1,.56.439,22.591,22.591,0,0,0,.575,3.269,0.5,0.5,0,0,1-.411.574,0.518,0.518,0,0,1-.124.008h0Zm328.243-4.15H406.97a0.521,0.521,0,0,1-.495-0.52l0.28-3.367a0.5,0.5,0,0,1,.542-0.453,0.517,0.517,0,0,1,.491.523l-0.255,3.365a0.536,0.536,0,0,1-.526.452h0ZM77.945,73.629a0.51,0.51,0,0,1-.52-0.448l-0.26-3.369a0.508,0.508,0,0,1,.5-0.514,0.517,0.517,0,0,1,.56.446l0.24,3.365a0.5,0.5,0,0,1-.473.519H77.945Zm329.589-4.193H407.5a0.491,0.491,0,0,1-.474-0.518l0.26-3.371a0.514,0.514,0,0,1,.556-0.446,0.5,0.5,0,0,1,.48.517l-0.26,3.373a0.518,0.518,0,0,1-.525.446h0ZM77.425,66.883a0.5,0.5,0,0,1-.515-0.439l-0.258-3.37a0.524,0.524,0,0,1,.48-0.514,0.507,0.507,0,0,1,.564.453l0.26,3.364a0.486,0.486,0,0,1-.487.506H77.425ZM408.059,62.7a0.073,0.073,0,0,1-.038-0.007,0.476,0.476,0,0,1-.476-0.513l0.26-3.376a0.519,0.519,0,0,1,.56-0.434,0.471,0.471,0,0,1,.478.513l-0.255,3.364a0.517,0.517,0,0,1-.529.454h0ZM76.923,60.158a0.512,0.512,0,0,1-.52-0.452L76.15,56.349a0.492,0.492,0,0,1,.478-0.525,0.508,0.508,0,0,1,.56.446l0.253,3.37a0.491,0.491,0,0,1-.473.512,0.2,0.2,0,0,0-.045.006h0Zm331.665-4.2h-0.029a0.48,0.48,0,0,1-.484-0.514l0.262-3.372a0.523,0.523,0,0,1,.555-0.451,0.513,0.513,0,0,1,.485.525l-0.266,3.367a0.505,0.505,0,0,1-.524.445h0ZM76.4,53.421a0.5,0.5,0,0,1-.514-0.446L75.63,49.6a0.509,0.509,0,0,1,.484-0.511,0.5,0.5,0,0,1,.553.451L76.934,52.9a0.506,0.506,0,0,1-.486.518H76.4Zm332.72-4.2H409.1a0.5,0.5,0,0,1-.5-0.507l0.258-3.369a0.529,0.529,0,0,1,.569-0.447,0.5,0.5,0,0,1,.489.51l-0.273,3.374a0.5,0.5,0,0,1-.516.439h0ZM75.9,46.683a0.508,0.508,0,0,1-.522-0.452l-0.253-3.362a0.478,0.478,0,0,1,.478-0.514,0.5,0.5,0,0,1,.551.445l0.258,3.364a0.486,0.486,0,0,1-.48.516,0.269,0.269,0,0,1-.033,0h0ZM409.639,42.5H409.61a0.511,0.511,0,0,1-.48-0.524l0.262-3.364a0.52,0.52,0,0,1,.56-0.437,0.473,0.473,0,0,1,.476.512l-0.255,3.367a0.52,0.52,0,0,1-.535.446h0ZM75.381,39.95a0.512,0.512,0,0,1-.518-0.452l-0.255-3.365a0.5,0.5,0,0,1,.484-0.518,0.519,0.519,0,0,1,.56.445L75.9,39.432a0.5,0.5,0,0,1-.476.518H75.381Zm334.837-4.2h-0.069a0.479,0.479,0,0,1-.455-0.538l0.093-.649c0.107-.933.195-1.83,0.3-2.691a0.522,0.522,0,0,1,1.036.1c-0.105.857-.195,1.752-0.306,2.7l-0.091.664a0.507,0.507,0,0,1-.509.414h0ZM74.85,33.214a0.516,0.516,0,0,1-.525-0.437l-0.133-1.184c-0.06-.769-0.126-1.486-0.209-2.171a0.48,0.48,0,0,1,.469-0.53,0.5,0.5,0,0,1,.564.429c0.076,0.688.153,1.417,0.236,2.181l0.116,1.184a0.507,0.507,0,0,1-.473.528H74.85ZM411.1,29.053H411.01a0.488,0.488,0,0,1-.426-0.552,25.053,25.053,0,0,1,.873-3.355,0.546,0.546,0,0,1,.665-0.3,0.469,0.469,0,0,1,.327.609,22.766,22.766,0,0,0-.826,3.214,0.537,0.537,0,0,1-.527.388h0ZM73.968,26.514a0.512,0.512,0,0,1-.516-0.38,13.317,13.317,0,0,0-1.066-3.1,0.477,0.477,0,0,1,.247-0.642,0.536,0.536,0,0,1,.7.24,15.175,15.175,0,0,1,1.153,3.3,0.5,0.5,0,0,1-.415.577,0.793,0.793,0,0,1-.1,0h0Z" transform="translate(-44.921 -20.328)"/>
    </g>
  </g>
</svg>
